<?xml version="1.0" encoding="UTF-8" standalone="no"?>
<!-- Created with Inkscape (http://www.inkscape.org/) -->

<svg
   xmlns:dc="http://purl.org/dc/elements/1.1/"
   xmlns:cc="http://creativecommons.org/ns#"
   xmlns:rdf="http://www.w3.org/1999/02/22-rdf-syntax-ns#"
   xmlns:svg="http://www.w3.org/2000/svg"
   xmlns="http://www.w3.org/2000/svg"
   xmlns:sodipodi="http://sodipodi.sourceforge.net/DTD/sodipodi-0.dtd"
   xmlns:inkscape="http://www.inkscape.org/namespaces/inkscape"
   width="210mm"
   height="297mm"
   viewBox="0 0 210 297"
   version="1.1"
   id="svg8"
   enable-background="new"
   inkscape:version="0.92.4 (5da689c313, 2019-01-14)"
   sodipodi:docname="boot.svg">
  <defs
     id="defs2">
    <inkscape:path-effect
       effect="bspline"
       id="path-effect829"
       is_visible="true"
       weight="33.333333"
       steps="2"
       helper_size="0"
       apply_no_weight="true"
       apply_with_weight="true"
       only_selected="false" />
  </defs>
  <sodipodi:namedview
     id="base"
     pagecolor="#ffffff"
     bordercolor="#666666"
     borderopacity="1.0"
     inkscape:pageopacity="0.0"
     inkscape:pageshadow="2"
     inkscape:zoom="1.1826172"
     inkscape:cx="318.35549"
     inkscape:cy="529.44337"
     inkscape:document-units="mm"
     inkscape:current-layer="layer1"
     showgrid="false"
     inkscape:window-width="1920"
     inkscape:window-height="1027"
     inkscape:window-x="-8"
     inkscape:window-y="-8"
     inkscape:window-maximized="1" />
  <metadata
     id="metadata5">
    <rdf:RDF>
      <cc:Work
         rdf:about="">
        <dc:format>image/svg+xml</dc:format>
        <dc:type
           rdf:resource="http://purl.org/dc/dcmitype/StillImage" />
        <dc:title></dc:title>
      </cc:Work>
    </rdf:RDF>
  </metadata>
  <g
     inkscape:label="Layer 1"
     inkscape:groupmode="layer"
     id="layer1"
     style="display:inline;opacity:1">
    <g
       id="g1265">
      <path
         transform="matrix(0.53972359,-0.29716493,0.30628538,0.55628854,-37.191034,97.632247)"
         inkscape:transform-center-y="-0.060338199"
         inkscape:transform-center-x="0.17908773"
         d="m 49.052133,197.44151 -4.480271,-2.52986 -2.874729,4.26719 -0.815486,-5.08015 -5.128588,0.413 3.463378,-3.805 -3.520515,-3.75219 5.134247,0.3354 0.738577,-5.09191 2.938923,4.22324 4.441507,-2.59731 -1.46947,4.93089 4.79989,1.85311 -4.771322,1.92548 z"
         inkscape:randomized="0"
         inkscape:rounded="0"
         inkscape:flatsided="false"
         sodipodi:arg2="1.3388364"
         sodipodi:arg1="0.8900374"
         sodipodi:r2="4.3545108"
         sodipodi:r1="8.7090216"
         sodipodi:cy="190.67377"
         sodipodi:cx="43.570824"
         sodipodi:sides="7"
         id="path1014"
         style="opacity:1;vector-effect:none;fill:#5c5c5c;fill-opacity:1;stroke:none;stroke-width:0.01;stroke-linecap:butt;stroke-linejoin:miter;stroke-miterlimit:4;stroke-dasharray:none;stroke-dashoffset:0;stroke-opacity:1"
         sodipodi:type="star" />
      <path
         transform="scale(0.26458333)"
         inkscape:connector-curvature="0"
         id="path1103"
         d="m 215.7868,727.58602 c -0.10459,-1.7968 -0.0571,-5.37595 0.10548,-7.95367 0.37746,-5.98367 0.53795,-7.10214 0.99398,-6.92714 0.19501,0.0748 2.3819,0.28426 4.85975,0.4654 9.71279,0.71004 20.61362,-0.32278 30.70523,-2.90922 3.65066,-0.93566 3.87729,-1.04009 11.73286,-5.40675 4.58627,-2.54935 8.11349,-4.34936 8.25173,-4.211 0.38623,0.38658 6.05898,9.27491 6.05898,9.4935 0,0.38242 -19.73804,13.18391 -22.05536,14.30443 -7.89137,3.81578 -17.40438,5.45585 -36.15245,6.23275 l -4.31003,0.1786 z"
         style="opacity:1;vector-effect:none;fill:#5c5c5c;fill-opacity:1;stroke:none;stroke-width:0.01041985;stroke-linecap:butt;stroke-linejoin:miter;stroke-miterlimit:4;stroke-dasharray:none;stroke-dashoffset:0;stroke-opacity:1" />
      <path
         inkscape:connector-curvature="0"
         id="path1105"
         d="m 56.721151,192.50713 c -0.709912,-0.69992 -1.688004,-1.19785 -2.849575,-1.45068 -0.746208,-0.16242 -3.084251,-0.22096 -4.748297,-0.11888 l -1.298285,0.0796 -0.202262,-0.1993 -0.202263,-0.19929 0.350545,-0.37872 c 0.318321,-0.34391 0.428931,-0.40655 1.203295,-0.6814 1.039569,-0.36898 2.504058,-0.74244 3.598877,-0.91775 0.900251,-0.14416 3.184996,-0.18513 4.220111,-0.0757 l 0.584616,0.0618 -0.05792,0.63115 c -0.03186,0.34713 -0.07791,1.32046 -0.102359,2.16296 l -0.04445,1.53181 z"
         style="opacity:1;vector-effect:none;fill:#5c5c5c;fill-opacity:1;stroke:none;stroke-width:0.00278045;stroke-linecap:butt;stroke-linejoin:miter;stroke-miterlimit:4;stroke-dasharray:none;stroke-dashoffset:0;stroke-opacity:1" />
      <path
         inkscape:connector-curvature="0"
         id="path1113"
         d="m 98.32194,207.50378 c -2.39401,-0.35944 -4.81902,-1.00605 -7.60945,-2.029 -2.90942,-1.06656 -6.38332,-1.95075 -8.255242,-2.10114 -1.541587,-0.12386 -1.587511,-0.11409 -1.717099,0.36511 -0.07323,0.2708 -0.134427,0.87935 -0.135994,1.35233 -0.0055,1.64916 0.956846,1.51266 -10.66407,1.51266 -8.148328,0 -10.424094,-0.056 -10.481632,-0.25789 -0.04042,-0.14185 -0.178137,-1.27916 -0.306035,-2.52737 -0.127896,-1.24821 -0.459686,-3.19752 -0.737311,-4.33181 -0.277629,-1.1343 -0.486656,-2.08029 -0.464508,-2.1022 0.0943,-0.0933 6.685573,0.5576 8.786927,0.86776 5.93406,0.87586 14.229631,2.81071 25.650244,5.98262 8.0548,2.23711 8.55725,2.2982 16.25384,1.97618 13.01873,-0.54469 14.47149,-0.71711 22.04619,-2.61646 3.68824,-0.92482 4.62754,-1.09746 4.76908,-0.8765 0.32279,0.50393 0.18936,0.71958 -0.59916,0.96837 -7.38009,2.32852 -10.47561,3.06808 -14.33287,3.42432 -8.1363,0.75144 -18.58393,0.93638 -22.20291,0.39302 z"
         style="opacity:1;vector-effect:none;fill:#000000;fill-opacity:1;stroke:#000000;stroke-width:0.00783851;stroke-linecap:butt;stroke-linejoin:miter;stroke-miterlimit:4;stroke-dasharray:none;stroke-dashoffset:0;stroke-opacity:1" />
      <path
         inkscape:connector-curvature="0"
         id="path1150"
         d="m 98.687394,206.50555 c -0.96285,-0.20982 -4.83616,-1.24955 -8.60733,-2.3105 -11.70145,-3.29198 -20.239204,-5.06656 -27.768828,-5.77179 -3.663752,-0.34314 -3.810373,-0.38268 -4.085778,-1.10186 -0.433903,-1.13307 -0.929254,-3.80166 -0.740674,-3.99023 0.09172,-0.0917 1.653225,-0.28602 3.470018,-0.43177 3.961064,-0.31779 5.944494,-0.84433 8.211386,-2.17988 0.934238,-0.55041 1.772994,-1.00075 1.863902,-1.00075 0.09091,0 0.725522,0.51641 1.41025,1.14756 1.286346,1.18572 3.512826,2.06195 5.239327,2.06195 2.731537,0 5.892967,-1.97521 7.115947,-4.44593 0.33858,-0.68401 0.61571,-1.01389 0.61583,-0.73305 1.7e-4,0.36501 0.23385,0.5106 0.81955,0.5106 0.99911,0 13.37035,-0.81012 15.302226,-1.00205 1.35822,-0.13494 1.3985,-0.11515 1.94488,0.95585 0.8573,1.68044 2.81778,3.29296 6.22654,5.1214 5.5158,2.95864 9.8195,4.16984 17.28569,4.86476 4.54618,0.42313 6.06955,1.06745 7.4495,3.15079 0.48145,0.72686 0.83131,1.45374 0.77746,1.61529 -0.13127,0.39383 -6.79593,2.05606 -11.14555,2.77982 -6.60397,1.09888 -21.74821,1.55216 -25.384346,0.75979 z"
         style="opacity:1;vector-effect:none;fill:#5e3923;fill-opacity:1;stroke:none;stroke-width:0.01102768;stroke-linecap:butt;stroke-linejoin:miter;stroke-miterlimit:4;stroke-dasharray:none;stroke-dashoffset:0;stroke-opacity:1" />
      <path
         inkscape:connector-curvature="0"
         id="path1158"
         d="m 58.071054,188.11031 c 0,-1.77275 0.66535,-6.47617 1.04449,-7.38358 0.266584,-0.63802 0.41438,-2.059 0.41438,-3.98401 0,-3.19448 0.09963,-3.44147 1.533446,-3.80133 0.656074,-0.16467 0.800745,-0.36315 0.800745,-1.09862 0,-0.49369 -0.989928,-8.84973 -2.199838,-18.56895 -1.602687,-12.87441 -2.121495,-17.8445 -1.911231,-18.30929 0.866248,-1.91481 6.929321,-7.7769 10.675985,-10.3221 1.425784,-0.96857 5.740956,-2.88454 6.518553,-2.89429 0.32054,-0.004 0.352837,0.92425 0.178604,5.13315 l -0.212698,5.13806 0.988495,-0.25085 c 1.26188,-0.32022 4.45784,-0.31836 5.8757,0.003 l 1.09416,0.24833 0.001,-1.71017 c 7.9e-4,-0.9406 0.0856,-3.1726 0.1886,-4.96002 l 0.18729,-3.24983 0.79494,0.22799 c 1.48542,0.42601 4.61175,2.12595 6.47235,3.51934 2.12892,1.59433 8.13439,7.70073 9.406818,9.56491 0.971017,1.4226 1.022417,0.58119 -0.546388,8.94323 -1.33533,7.11756 -1.69905,11.41686 -1.88526,22.28469 l -0.17685,10.32195 -6.46655,1.89835 -6.46655,1.89834 -1.07796,-1.0469 c -0.59288,-0.57579 -1.73277,-1.26439 -2.53309,-1.53022 -1.82075,-0.60475 -4.70279,-0.60147 -6.147779,0.007 -2.540346,1.06973 -4.871521,4.23895 -4.877863,6.63142 -0.0042,1.56316 -0.425866,2.4351 -1.364232,2.82066 -1.639675,0.67373 -4.96443,1.2002 -7.61067,1.20517 -2.696822,0.005 -2.698909,0.004 -2.698909,-0.73586 z"
         style="opacity:1;vector-effect:none;fill:#fbb184;fill-opacity:1;stroke:none;stroke-width:0.01102768;stroke-linecap:butt;stroke-linejoin:miter;stroke-miterlimit:4;stroke-dasharray:none;stroke-dashoffset:0;stroke-opacity:1" />
      <ellipse
         ry="7.949492"
         rx="8.6613874"
         cy="185.07433"
         cx="77.556984"
         id="path1018-3"
         style="display:inline;opacity:1;vector-effect:none;fill:#5c5c5c;fill-opacity:1;stroke:none;stroke-width:0.01056993;stroke-linecap:butt;stroke-linejoin:miter;stroke-miterlimit:4;stroke-dasharray:none;stroke-dashoffset:0;stroke-opacity:1" />
      <ellipse
         ry="0.67234492"
         rx="0.63279545"
         cy="190.92767"
         cx="44.809822"
         id="path1177"
         style="opacity:1;vector-effect:none;fill:#000000;fill-opacity:1;stroke:none;stroke-width:0.00196394;stroke-linecap:butt;stroke-linejoin:miter;stroke-miterlimit:4;stroke-dasharray:none;stroke-dashoffset:0;stroke-opacity:1" />
      <ellipse
         ry="3.4129999"
         rx="3.7090409"
         cy="185.30434"
         cx="77.465454"
         id="path1177-8"
         style="display:inline;opacity:1;vector-effect:none;fill:#000000;fill-opacity:1;stroke:none;stroke-width:0.01071273;stroke-linecap:butt;stroke-linejoin:miter;stroke-miterlimit:4;stroke-dasharray:none;stroke-dashoffset:0;stroke-opacity:1" />
      <path
         inkscape:connector-curvature="0"
         id="path1156-4"
         d="m 81.152086,132.15949 c -0.900109,-0.21553 -2.883384,-0.27025 -4.407284,-0.12151 l -2.770728,0.27033 0.257575,-3.23677 c 0.141671,-1.78026 0.432934,-4.825 0.647266,-6.7662 0.214335,-1.94119 0.390338,-3.6841 0.391108,-3.87312 0.0016,-0.40339 6.595351,-0.44537 7.54322,-0.0481 0.529889,0.22212 0.634511,1.0023 0.579225,4.31939 -0.0371,2.22658 -0.18815,5.3532 -0.335646,6.94809 l -0.268177,2.89975 z"
         style="display:inline;opacity:1;vector-effect:none;fill:#5e3923;fill-opacity:1;stroke:none;stroke-width:0.01609491;stroke-linecap:butt;stroke-linejoin:miter;stroke-miterlimit:4;stroke-dasharray:none;stroke-dashoffset:0;stroke-opacity:1" />
      <path
         inkscape:connector-curvature="0"
         id="path1109-7"
         d="m 85.248853,188.66349 c 0,-0.0186 0.06515,-0.20729 0.144778,-0.41942 0.86879,-2.31445 0.531013,-5.14377 -0.851567,-7.13297 -0.286415,-0.41208 -0.312954,-0.48114 -0.202787,-0.52767 0.06971,-0.0294 3.22376,-0.95854 7.00899,-2.06466 3.785228,-1.10612 6.926396,-2.0277 6.980363,-2.04796 0.0694,-0.0261 0.136009,0.1192 0.227578,0.49637 0.652841,2.68913 2.427182,6.56601 4.579312,10.00567 0.1722,0.27522 0.30145,0.51178 0.28722,0.5257 -0.0216,0.0211 -17.797527,1.19988 -18.080692,1.19897 -0.05126,-1.6e-4 -0.09319,-0.0155 -0.09319,-0.034 z"
         style="display:inline;opacity:1;vector-effect:none;fill:#5c5c5c;fill-opacity:1;stroke:none;stroke-width:0.0027872;stroke-linecap:butt;stroke-linejoin:miter;stroke-miterlimit:4;stroke-dasharray:none;stroke-dashoffset:0;stroke-opacity:1" />
    </g>
  </g>
</svg>
